<?xml version="1.0" encoding="UTF-8"?>
<svg id="Layer_1" xmlns="http://www.w3.org/2000/svg" version="1.1" xmlns:serif="http://www.serif.com/" xmlns:xlink="http://www.w3.org/1999/xlink" viewBox="0 0 1500 2100">
  <!-- Generator: Adobe Illustrator 29.2.1, SVG Export Plug-In . SVG Version: 2.1.0 Build 116)  -->
  <g id="icon">
    <path id="symbol" d="M434,662.8c0,16.5-6,27.7-18,33.7-3.5,1.7-14.5,4.1-33,7.1-12,2-18,6.6-18,13.8v30.3c0,1.2.4,5.1,1.1,11.6l1.1,12c0,3.7-.9,9.9-2.6,18.4-4.7,1-10.3,2.1-16.5,3.4-2-7.5-3-12.6-3-15.4s.3-3.1.9-5.6c.6-2.5.9-4.4.9-5.6s-1.5-6.6-4.7-14.6h-5.8c-.7,1.2-1,2.9-.8,4.9,1,4.2,1.4,7.9,1.1,10.9-4.2,3-10.1,7-17.6,12-1.7-.5-2.4-.7-1.9-.7v-26.6c-.5-1.2-1.7-1.7-3.7-1.5h-4.5l-4.5,35.2c-3.5.2-7.8.2-12.8,0-1.7-8.2-4.9-20.5-9.4-36.7h-3c-2.7,8.8-4.2,13.5-4.5,14.2,0,1,.3,2.9.9,5.8.6,2.9.9,4.8.9,5.8s-.2,2.6-.7,5.6l-1.1,9c-.5.5-1.1.7-1.9.7-7.5,0-12.5-1.9-15-5.6-2.5-3.7-3.5-9-3-15.7l3-45c0-.7.2-1.7.7-3,.5-1.2.7-2.1.7-2.6,0-2-2.1-6-6.4-12-.7-.2-4.6-1.1-11.6-2.6-4.2-1-12.6-2.7-25.1-5.2-17.2-3.2-25.9-17.1-25.9-41.6,0-36.5,15-66.9,45-91.1,1.2,6.7,3.4,15.7,6.4,27,2.2.5,7.1,1.6,14.6,3.4,1.5.5,9.1,3.2,22.9,8.3-7-4.2-16.1-11.1-27.4-20.6-4.2-5-6.4-13.4-6.4-25.1s4.7-6,14.2-9.8c8.5-3.5,14.9-5.5,19.1-6,13.5-1.7,23.9-2.6,31.1-2.6,31.2,0,56.5,8,75.7,24-6.2,7.3-17,15-32.2,23.2,6,.2,14.7-2.1,26.3-7.1,11.5-5,16.4-7.5,14.6-7.5,2,0,6,4,12,12,4.5,6,8.1,11.4,10.9,16.1,8,14.2,13.4,29.6,16.1,46.1,0,5.8.1,9.9.4,12.4v3-.2q-.1,0-.1,0ZM290.5,669.6c0-10.8-4.7-20.9-14-30.5s-19.4-14.4-30.2-14.4-17.9,4-25.1,12.1c-7.3,8.1-10.9,17-10.9,26.8s4.1,14.1,12.4,16.6c5.2,1.5,12.6,2.4,22.1,2.6h20.6c16.7.2,25.1-4.1,25.1-13.1M331.3,716v-11.6c-1.7-3.2-3.5-6.6-5.2-10.1-1.5-5-4.2-12-8.3-21l-4.1,43.8c0,3.5-.7,5.2-2.2,5.2s-1.7-.2-2.2-.7c-1.7-26.5-2.6-38-2.6-34.5v-13.1c-.5-.7-1.1-1.1-1.8-1.1-8.5,8.8-12.8,22.9-12.8,42.3s1,17.4,3,19.9c2-.5,4.2-1.4,6.7-2.6,1-.5,3.9-.7,8.6-.7s10.5,1.5,17.2,4.5c2.5,0,3.7-6.7,3.7-20.2M416,663.8c0-10.1-3.7-19-11.3-27-7.5-7.9-16.1-11.9-25.9-11.9s-20.3,4.8-29.4,14.4c-9.1,9.6-13.7,19.7-13.7,30.2s4.2,13.1,12.8,13.1h43.1c16.2-.2,24.4-6.5,24.4-18.9"/>
  </g>
</svg>