<?xml version="1.0" encoding="UTF-8"?>
<svg id="Layer_1" xmlns="http://www.w3.org/2000/svg" version="1.1" xmlns:serif="http://www.serif.com/" xmlns:xlink="http://www.w3.org/1999/xlink" viewBox="0 0 1500 2100">
  <!-- Generator: Adobe Illustrator 29.2.1, SVG Export Plug-In . SVG Version: 2.1.0 Build 116)  -->
  <g id="icon">
    <path id="symbol" d="M442.8,683.2c0,5-1.9,9.5-5.8,13.5-3.8,4-8.3,6-13.3,6-8,0-13.8-3.7-17.5-11.2l-17.5-.7c-3.7,0-11.1,1.6-22,4.9-11.7,3.2-18.4,5.8-20.2,7.8-2.7,3-5,10-6.7,20.9-1.5,9-2.2,15.5-2.2,19.8,0,6.7,1,11.7,3.2,14.7,2.1,3.1,6.5,5.7,13.1,7.8,6.6,2.1,10.7,3.3,12.2,3.5,1,0,2.6,0,4.9-.3h4.5c3.2,0,6.6.5,10.1,1.5,5,1.5,7.1,3.5,6.4,6-3.5-.5-9.6.2-18.3,2.2l10.5,5.2c0,3-4.2,4.5-12.7,4.5s-5.3-.5-9.2-1.5c-3.8-1-6.4-1.5-7.7-1.5h-4.8c-.2,2.5-1,6.2-2.2,11.2-4.2-.2-9.2-2.7-14.9-7.5-5.7-4.7-9.3-7.1-10.8-7.1s-3.6,2.4-6.3,7.1c-2.7,4.7-4.1,8-4.1,9.7-3.2-1.7-6-5-8.2-9.7-1-3.2-2.1-6.5-3.3-9.7-2.5.2-7.1,5.5-13.8,15.7h-1.9c-.5-.7-2.4-6-5.6-15.7-7.7-2.5-14.9-3.7-21.7-3.7s-8.2.7-14.9,2.2l-10.5-.7c1.5-1.5,5.8-4.3,13.1-8.6,8.5-5,14.9-7.5,19.4-7.5s1.7.2,3,.4c1.2.2,2.2.4,3,.4,1.7,0,4.5-.9,8.4-2.8,3.8-1.8,6.1-3.5,6.7-5,.6-1.5.9-5.4.9-11.6,0-14.2-3.7-24.8-11.2-31.7-6.5-6.2-17.2-10.7-32.1-13.5-4,14.2-15.2,21.3-33.6,21.3s-12-3.6-17.9-10.8c-6.1-7.4-9.1-13.9-9.1-19.9,0-9.2,3.8-16.8,11.6-22.8-6.2-6.5-9.3-13.1-9.3-19.8s1.9-11.7,5.8-16.4c3.8-4.7,8.9-7.5,15.1-8.2-.5-8,2.1-13.5,7.8-16.4-2.7-2.7-4.1-7.6-4.1-14.5s2.7-15,8.2-20.5c5.5-5.5,12.3-8.2,20.5-8.2s16.3,3.1,22,9.4c7.2-24.7,22.8-37,46.7-37s23.4,5,32.9,14.9c3.5,3.7,5.2,5.7,5.2,6-3,0-1.5-.5,4.5-1.7,6-1.1,10.3-1.7,13.1-1.7,9.7,0,18.3,3.6,25.8,10.8,6.5,6.5,11,14.7,13.5,24.7,1.7.2,4.5,1,8.2,2.2,5.5,2.7,8.2,7.5,8.2,14.2s-1,3.6-3,7.1c15.9,9,23.9,21.4,23.9,37.4s-1.7,10.7-5.2,18.7c6.5,3.7,9.7,9.2,9.7,16.4M289.1,699.7v-4.8c0-5.7-2.8-11-8.4-15.7-5.6-4.7-11.3-7.1-17-7.1s-13.5,1.6-19.4,4.8c13.2-.7,28.1,6.9,44.8,22.8M282.3,653.4c-3.7-4.2-7-8.6-9.7-13.1-10.5,2.7-15.7,5.8-15.7,9.3,3-.2,7.3.3,13.1,1.7,5.7,1.4,9.8,2,12.4,2M305,641.9v-16.4c-6-1-9.6-1.5-10.8-1.5v5.6l10.8,12.3M353.6,631.4c-3-1.2-8.6-3.7-16.8-7.5v32.1c11.7-6.7,17.3-14.9,16.8-24.7M374.1,675.4l-8.2-10.1c-5,3.5-10,7-15.1,10.7-5.1,3.6-9.5,7.7-13.3,12.2,11.2-6,23.4-10.2,36.6-12.7"/>
  </g>
</svg>