<?xml version="1.0" encoding="UTF-8"?>
<svg id="Layer_1" xmlns="http://www.w3.org/2000/svg" version="1.1" xmlns:serif="http://www.serif.com/" xmlns:xlink="http://www.w3.org/1999/xlink" viewBox="0 0 1500 2100">
  <!-- Generator: Adobe Illustrator 29.2.1, SVG Export Plug-In . SVG Version: 2.1.0 Build 116)  -->
  <g id="icon">
    <path id="symbol" d="M423.5,717.6c-11.2,26.7-33.4,40-66.6,40s-12.7.7-19.8,2.3c-10.7,2.3-16,5.5-16,9.5s.9,2.7,2.6,4.4c1.8,1.6,3.3,2.5,4.6,2.5-6.3,0-2,.2,13,.5,15,.4,24.4.5,28.1.5-22.1,13-59,18.9-110.7,17.9-17-.2-31.6-7.7-43.7-22.5-12-14-17.9-29.5-17.9-46.8s6.1-33.8,18.5-46.6c12.3-12.8,27.6-19.2,45.8-19.2s9.5.9,16.2,2.6c6.7,1.8,11.2,2.6,13.5,2.6,9.4,0,21.1-3.9,35-11.6,13.9-7.7,20.6-11.6,19.8-11.6-2.5,26.7-11.4,44.5-26.7,53.7-10.9,6.3-16.3,12.6-16.3,18.6s2.3,6.9,6.8,9.1c3.5,1.8,7.5,2.7,11.8,2.7,6.6,0,13.1-4,19.4-12.2,6.3-8.1,9.1-15.5,8.4-22.1-.7-7.6-.2-16.7,1.5-27.4.5-3,2.3-6.8,5.5-11.2,3.2-4.4,6-7.2,8.6-8.2,0,2.3-.8,6.1-2.5,11.4-1.6,5.3-2.5,9.3-2.5,11.8,0,5.6,1.5,9.9,4.6,13,4.6-1.8,8.6-7.5,12.2-17.1,3-7.4,4.8-14.4,5.3-21.3-10.7-.5-20.9-5.3-30.6-14.4-9.8-9.1-14.6-19-14.6-29.7s.2-3.5.7-5.3c1.5,2.3,3.8,5.8,6.8,10.7,4.3,6.3,7.6,9.5,9.9,9.5s4.6-3.2,4.6-9.5-2.1-15.5-6.5-22.1c-4.8-7.9-11.1-11.8-18.6-11.8s-8.9,1.9-16,5.7c-7.1,3.8-13.6,5.7-19.4,5.7s-9.7-2.3-23.6-6.9c24.6-4,36.9-7.7,36.9-11,0-8.6-16.9-14.4-50.6-17.5-3.3-.2-9.4-.7-18.3-1.5,1-1.2,8.2-2.6,21.7-4.2,11.4-1.2,19.4-1.9,24-1.9,60.4,0,98.7,29.3,114.9,87.9,2.8-2.3,4.2-6.2,4.2-11.6s-2-15.7-6.1-26.3c-1.5-4.1-3.9-10.3-7.2-18.5,20.8,26.5,31.2,51.6,31.2,75.3s-2.9,23.8-8.8,34c-3.8,6.9-10.9,15.7-21.3,26.4s-17.5,19-21.3,24.9c13.9-3.8,23.1-6.7,27.4-8.8,9.6-4.3,18.4-10.8,26.3-19.4,0,3.3-1.4,8.3-4.2,14.8M257.6,568c0,4.6-2.5,7.5-7.6,8.8l-9.9,1.5c-3.5,1.8-8.8,8.8-15.6,20.9-.7-3.8-1.9-9.1-3.4-16-2.3.2-6.1,2.3-11.4,6.1-2.3,1.8-6,4.4-11.1,8,1.5-9.1,6.6-18.4,15.2-27.8,9.1-10.4,18-15.6,26.7-15.6s17.1,4.7,17.1,14.1M323.8,603c0,4.3-2.3,7.9-7,10.9-4.7,2.9-9.3,4.4-13.9,4.4s-11.6-3.4-16.3-10.3c-5.8-8.4-11.8-13.8-17.9-16.4,1.2-1.2,2.8-1.9,4.6-1.9s6.1,1.8,11.6,5.3c5.4,3.5,8.9,5.3,10.5,5.3s3.3-1.8,6.3-5.3c2.9-3.5,6.1-5.3,9.7-5.3,8.4,0,12.6,4.4,12.6,13.3"/>
  </g>
</svg>