<?xml version="1.0" encoding="UTF-8"?>
<svg id="Layer_1" xmlns="http://www.w3.org/2000/svg" version="1.1" xmlns:serif="http://www.serif.com/" xmlns:xlink="http://www.w3.org/1999/xlink" viewBox="0 0 1500 2100">
  <!-- Generator: Adobe Illustrator 29.2.1, SVG Export Plug-In . SVG Version: 2.1.0 Build 116)  -->
  <g id="icon">
    <path id="symbol" d="M365.8,765.4c-14.3,14.6-31.9,21.8-52.9,21.8s-42.1-8-55.9-24.1c-13-15.3-19.5-34.9-19.5-58.6s11.1-54.7,33.3-87.4c18.1-26.8,39.5-50.3,64-70.5-3.6,16.3-5.4,28-5.4,34.9,0,15.8,5,31.3,14.9,46.4,12.3,17.9,21.6,31.2,28,39.8,10,15.1,14.9,29.8,14.9,44,0,21.2-7.1,39.1-21.4,53.6M365.4,683.7c-3.8-8.6-8.3-14.2-13.4-17,.8,1.5,1.2,3.7,1.2,6.5,0,5.4-1.5,13-4.6,23l-5,15.3c0,8.9,4.5,13.4,13.4,13.4s14.2-6.3,14.2-18.8-1.9-13.8-5.7-22.4"/>
  </g>
</svg>