<?xml version="1.0" encoding="UTF-8"?>
<svg id="Layer_1" xmlns="http://www.w3.org/2000/svg" version="1.1" xmlns:serif="http://www.serif.com/" xmlns:xlink="http://www.w3.org/1999/xlink" viewBox="0 0 1500 2100">
  <!-- Generator: Adobe Illustrator 29.2.1, SVG Export Plug-In . SVG Version: 2.1.0 Build 116)  -->
  <g id="icon">
    <path id="symbol" d="M455,688.1c-19.6-11.1-32.2-16.6-37.7-16.6s-7.2,3.1-9.4,9.3c-2.2,6.2-6.8,9.2-13.5,9.2s-8.4-1-17-3c-4.8,7.3-7.2,12-7.2,13.9s2,6,6.2,9.8,7.6,5.6,10.4,5.6,4.2-.3,7.3-1.1c3.1-.7,5.1-1.1,6.2-1.1,3.1,0,4.6,5.7,4.6,17s-2.5,27.4-7.5,49.8c-6.5-25.7-13.5-38.5-20.7-38.5s-3.1.7-6.2,2.3c-3.1,1.5-5.5,2.2-7,2.2-7.3,0-13.8-6.7-19.6-20-11.6,1.7-17.3,7.7-17.3,17.7s2.3,9.1,7,12.1c4.6,3,7,5.2,7,6.4,0,6.8-9.9,17.2-29.8,31.3-10.6,7.5-17.8,12.8-21.9,15.8,3.5-4.5,7-10.4,10.6-17.7,4-8.3,6-14.7,6-19.2s-2.9-6-8.7-10.6c-5.8-4.5-8.7-9.3-8.7-14.3s1.5-9.6,4.5-15.8c-3.3-3.8-7.2-5.7-11.7-5.7-10.1,0-15.1,3.3-15.1,9.8,0-4.5,0-1.1,0,10.2.2,8.3-6,12.5-18.9,12.5s-26.3-2.3-49.4-6.8c26.2-6.5,39.2-14.1,39.2-22.6,0,1-.5-2-1.5-9.1-1-7.8,4.5-14.8,16.6-21.1-2.2-11.6-8.3-17.3-18.1-17.3s-4.3,2.6-8.3,7.9c-4,5.3-7.8,7.9-11.3,7.9-6,0-13.9-6.5-23.4-19.6-4.5-6.5-11.5-16.2-20.7-29,5.8,3,11.6,6,17.3,9.1,7.5,3.5,13.6,5.3,18.1,5.3s7-3.1,10.4-9.3c3.4-6.2,7.9-9.3,13.4-9.3s5.8,1.5,15.1,4.5c4.8-7.3,7.2-12.7,7.2-16.2s-1.8-6.5-5.5-10.4-7-5.8-10-5.8-3.2.4-5.8,1.1c-2.6.7-4.6,1.1-5.8,1.1-4.5,0-6.8-5.7-6.8-17s2.9-20.2,8.7-51.7c-.2,3.8,1.4,10.8,4.9,21.1,4.3,12.6,9.3,18.9,15.1,18.9s3-.7,6-2.2c3-1.5,5.4-2.2,7.2-2.2,5.8,0,10.6,3.3,14.3,9.8l5.7,10.2c5.3,0,9.7-1.9,13.2-5.6,3.5-3.8,5.3-8.3,5.3-13.6s-2.3-9.8-7-12.7c-4.7-2.9-7-5.1-7-6.6,0-5.3,8.3-14.2,24.9-26.8,13.3-10.1,22-15.9,26-17.7-10.8,14.6-16.2,25.3-16.2,32s2.1,7.3,6.4,11.3c5.3,4.8,8.3,8.2,9.1,10.2,2.5,5.8,2.2,13.7-.7,23.8,6.8,4.8,12,7.2,15.4,7.2,7.3,0,10.9-3.8,10.9-11.3s-.3-3.1-.9-7.2c-.6-4-.8-6.3-.5-6.8,1-3.5,7.9-5.3,20.7-5.3s24.8,2.2,50.2,6.8c-5.5,1.5-13.8,3.8-24.9,6.8-10.1,3-15.1,6.4-15.1,10.2s.6,4.8,1.9,9.1c1.2,4.3,1.9,7.4,1.9,9.4,0,3.5-2.2,6.8-6.8,9.8l-12.8,9.1c3,5.5,5,8.8,6,9.8,2.5,3,5.9,4.5,10.2,4.5s5.8-2.6,8.3-7.9c2.5-5.3,6.5-7.9,12.1-7.9s14.4,6.3,23,18.9c4.8,7.1,12.2,17.7,22.2,32.1M371.4,666.3c0-16.1-5.9-30-17.7-41.8-11.8-11.8-25.8-17.7-41.8-17.7s-30.4,5.8-42.2,17.5c-11.8,11.7-17.8,25.7-18.1,42-.2,16.1,5.7,30,17.9,41.6,12.2,11.7,26.4,17.5,42.4,17.5s31.4-5.6,42.8-16.8c11.5-11.2,17-25.3,16.8-42.4M365.7,666.3c0,15.3-5.1,28-15.4,38.1-10.3,10.1-23.1,15.1-38.5,15.1s-27.5-5.1-38.1-15.4c-10.6-10.3-15.8-22.9-15.8-37.7s5.3-27.1,16-37.5,23.3-15.6,37.9-15.6,27.2,5.3,37.9,15.8c10.7,10.6,16,23,16,37.3"/>
  </g>
</svg>