<?xml version="1.0" encoding="UTF-8" standalone="no"?><!DOCTYPE svg PUBLIC "-//W3C//DTD SVG 1.1//EN" "http://www.w3.org/Graphics/SVG/1.1/DTD/svg11.dtd"><svg width="100%" height="100%" viewBox="0 0 253 124" version="1.1" xmlns="http://www.w3.org/2000/svg" xmlns:xlink="http://www.w3.org/1999/xlink" xml:space="preserve" xmlns:serif="http://www.serif.com/" style="fill-rule:evenodd;clip-rule:evenodd;stroke-linejoin:round;stroke-miterlimit:2;"><g><g id="PT"><path id="PT1" serif:id="PT" d="M0,62c-0.13,-25.34 5.14,-44.85 18,-62l216,0c12.86,17.15 18.13,36.66 18,62c0.13,25.34 -5.14,44.85 -18,62l-216,0c-12.85,-17.15 -18.12,-36.66 -18,-62Z" style="fill:#ebe7db;fill-opacity:0.7;"/><g><path d="M0.15,69.85c-0.11,-2.55 -0.16,-5.17 -0.15,-7.85c-0.13,-25.34 5.14,-44.85 18,-62l216,0c12.86,17.15 18.13,36.66 18,62c0.13,25.34 -5.14,44.85 -18,62l-216,0c-11.49,-15.34 -16.92,-32.56 -17.85,-54.15l7.85,-7.81c-0.11,21.78 3.96,38.93 14.12,53.96l207.76,0c10.16,-15.03 14.23,-32.16 14.12,-53.93l0,-0.11c0.11,-21.78 -3.96,-38.93 -14.12,-53.96l-207.76,0c-10.16,15.03 -14.23,32.18 -14.12,53.96l-7.85,7.89Z" style="fill:#00568b;"/><path d="M17.76,123.67l0.24,0.33l-0.23,-0.32l-0.01,-0.01Zm-0.24,-0.32l0.16,0.22l-0.15,-0.2l-0.01,-0.02Zm-0.24,-0.33l0.14,0.2l-0.12,-0.17l-0.02,-0.03Zm-0.24,-0.33l0.14,0.19l-0.11,-0.15l-0.03,-0.04Zm-0.23,-0.32l0.13,0.18l-0.1,-0.14l-0.03,-0.04Zm-0.24,-0.33l0.13,0.18l-0.09,-0.13l-0.04,-0.05Zm-0.23,-0.33l0.13,0.18l-0.09,-0.12l-0.04,-0.06Zm-0.23,-0.33l0.13,0.18l-0.08,-0.11l-0.05,-0.07Zm-0.23,-0.33l0.13,0.18l-0.08,-0.1l-0.05,-0.08Zm-0.23,-0.33l0.13,0.18l-0.07,-0.1l-0.06,-0.08Zm-0.22,-0.33l0.12,0.17l-0.06,-0.08l-0.06,-0.09Zm-0.22,-0.34l0.12,0.18l-0.05,-0.07l-0.07,-0.11Zm-0.23,-0.33l0.12,0.18l-0.04,-0.07l-0.08,-0.11Zm-0.22,-0.34l0.12,0.19l-0.04,-0.06l-0.08,-0.13Zm-0.22,-0.33l0.12,0.18l-0.03,-0.05l-0.09,-0.13Zm-0.21,-0.34l0.12,0.19l-0.03,-0.04l-0.09,-0.15Zm-0.22,-0.34l0.12,0.19l-0.02,-0.03l-0.1,-0.16Zm-0.22,-0.35l0.13,0.21l-0.02,-0.03l-0.11,-0.18Zm-0.23,-0.37l0.15,0.24l-0.01,-0.01l-0.14,-0.23Zm-0.06,-0.09l-0.42,-0.68c0.14,0.22 0.28,0.45 0.42,0.68Zm-0.62,-1.02l0.14,0.24l-0.13,-0.22l-0.01,-0.02Zm-0.2,-0.34l0.12,0.21l-0.11,-0.18l-0.01,-0.03Zm-0.21,-0.34l0.12,0.2l-0.09,-0.16l-0.03,-0.04Zm-0.2,-0.34l0.12,0.2l-0.09,-0.16l-0.03,-0.04Zm-0.19,-0.35l0.11,0.2l-0.08,-0.14l-0.03,-0.06Zm-0.2,-0.34l0.11,0.2l-0.07,-0.13l-0.04,-0.07Zm-0.19,-0.34l0.11,0.19l-0.07,-0.12l-0.04,-0.07Zm-0.2,-0.35l0.11,0.2l-0.06,-0.11l-0.05,-0.09Zm-0.19,-0.34l0.11,0.2l-0.06,-0.11l-0.05,-0.09Zm-0.19,-0.35l0.11,0.2l-0.05,-0.09l-0.06,-0.11Zm-0.19,-0.35l0.11,0.2l-0.04,-0.08l-0.07,-0.12Zm-0.19,-0.35l0.11,0.21l-0.04,-0.08l-0.07,-0.13Zm-0.18,-0.35l0.11,0.21l-0.04,-0.07l-0.07,-0.14Zm-0.19,-0.35l0.12,0.21l-0.03,-0.05l-0.09,-0.16Zm-0.18,-0.36l0.11,0.22l-0.11,-0.22Zm-0.19,-0.37l0.12,0.25l-0.02,-0.05l-0.1,-0.2Zm-0.19,-0.38l0.14,0.28l-0.14,-0.28Zm-9.85,-44.07c0.06,2.63 0.19,5.19 0.38,7.7l12.57,-12.64c-0.1,-19.57 3.27,-35.22 11.83,-48.93l202.34,0c8.56,13.71 11.93,29.36 11.83,48.93l0,0.14c0.1,19.57 -3.27,35.22 -11.83,48.93l-202.33,0c-8.13,-13.01 -11.57,-27.76 -11.82,-45.95l2.98,-2.97c-0.09,18.26 2.88,33 10.53,45.92l198.95,0c7.64,-12.92 10.61,-27.66 10.52,-45.92l0,-0.16c0.09,-18.26 -2.88,-33 -10.52,-45.92l-198.96,0c-7.64,12.92 -10.61,27.66 -10.52,45.92l-2.99,3c-0.01,-0.94 -0.01,-1.89 -0.01,-2.85l-12.57,12.5c0.07,0.93 0.15,1.85 0.24,2.76c-0.33,-3.38 -0.54,-6.86 -0.62,-10.46Zm9.64,43.64c-0.06,-0.12 -0.36,-0.72 -0.36,-0.72c0.18,0.36 0.35,0.72 0.53,1.07l-0.17,-0.35Zm-0.53,-1.07l0.17,0.33l-0.15,-0.3l-0.02,-0.03Zm-0.16,-0.36l0.13,0.29l-0.12,-0.25l-0.01,-0.04Zm-0.17,-0.36l0.12,0.27l-0.1,-0.22l-0.02,-0.05Zm-0.17,-0.35l0.12,0.25l-0.09,-0.19l-0.03,-0.06Zm-0.16,-0.36l0.11,0.25l-0.08,-0.18l-0.03,-0.07Zm-0.16,-0.36l0.11,0.24l-0.07,-0.16l-0.04,-0.08Zm-0.16,-0.36l0.11,0.24l-0.07,-0.15l-0.04,-0.09Zm-0.16,-0.37l0.11,0.25l-0.06,-0.14l-0.05,-0.11Zm-0.16,-0.36l0.11,0.25l-0.06,-0.13l-0.05,-0.12Zm-0.16,-0.37l0.11,0.25l-0.05,-0.11l-0.06,-0.14Zm-0.15,-0.37l0.11,0.26l-0.05,-0.1l-0.06,-0.16Zm-0.16,-0.37l0.11,0.27l-0.04,-0.1l-0.07,-0.17Zm-0.15,-0.38l0.11,0.29l-0.03,-0.09l-0.08,-0.2Zm-0.16,-0.38l0.12,0.3l-0.03,-0.08l-0.09,-0.22Zm-0.15,-0.39l0.13,0.33l-0.03,-0.07l-0.1,-0.26Zm-1.15,-3.06c0.36,1.02 0.74,2.02 1.13,3.02c-0.39,-1 -0.77,-2 -1.13,-3.02Zm-0.13,-0.38l0.13,0.38l-0.1,-0.29l-0.03,-0.09Zm-0.13,-0.38l0.12,0.36l-0.09,-0.25l-0.03,-0.11Zm-0.13,-0.38l0.12,0.35l-0.08,-0.23l-0.04,-0.12Zm-0.13,-0.38l0.12,0.35l-0.07,-0.21l-0.05,-0.14Zm-0.13,-0.39l0.12,0.35l-0.07,-0.19l-0.05,-0.16Zm-0.12,-0.39l0.11,0.36l-0.06,-0.18l-0.05,-0.18Zm-0.13,-0.39l0.12,0.36l-0.06,-0.16l-0.06,-0.2Zm-0.12,-0.4l0.12,0.38l-0.05,-0.15l-0.07,-0.23Zm-3.64,-16.87c0.78,5.95 1.98,11.55 3.64,16.87c-1.66,-5.32 -2.86,-10.92 -3.64,-16.87Zm-0.06,-0.46l0.04,0.31l-0.05,-0.43l-0.04,-0.28l0.05,0.4Zm-0.11,-0.88l0.05,0.35l-0.06,-0.42l-0.03,-0.33l0.04,0.4Zm-0.1,-0.88l0.04,0.37l-0.04,-0.4l-0.04,-0.37l0.04,0.4Zm-0.09,-0.89l0.04,0.4l-0.04,-0.39l-0.05,-0.42l0.05,0.41Zm-0.09,-0.84l0.04,0.37l-0.04,-0.36l0,-0.01Zm-0.65,-11.58l0.01,0.27l0,-0.05l-0.01,-0.22Zm-0.01,-0.98l0.01,0.33l-0.01,-0.11l0,-0.22Zm-0.01,-0.93l0.01,0.34l-0.01,-0.18l0,-0.16Zm0,-0.92l0,0.29l0,-0.29Z" style="fill:#00568b;fill-opacity:0.5;"/></g></g></g></svg>