<?xml version="1.0" encoding="UTF-8"?><svg id="Layer_1" xmlns="http://www.w3.org/2000/svg" width="660" height="660" viewBox="0 0 660 660"><defs><style>.cls-1{fill-rule:evenodd;}.cls-1,.cls-2{fill:#cbc2c0;}</style></defs><path class="cls-1" d="M330,0C147.868,0,0,147.868,0,330s147.868,330,330,330,330-147.86801,330-330S512.13199,0,330,0ZM330,30c165.57501,0,300,134.425,300,300s-134.42499,300-300,300S30,495.57501,30,330,164.425,30,330,30Z"/><path class="cls-2" d="M272,484h118c47,0,61-3,77-55l40-1-36,124H186l-1-34c214-209,218-240,220-271,5-68-44-90-70-90s-69,17-111,103l-37-16c56-157,150-150,180-149,74,2,122,72,120,131-2,80-37,92-215,258Z"/></svg>