<?xml version="1.0" encoding="UTF-8"?><svg id="Layer_1" xmlns="http://www.w3.org/2000/svg" width="660" height="660" viewBox="0 0 660 660"><defs><style>.cls-1{fill-rule:evenodd;}.cls-1,.cls-2{fill:#cbc2c0;}</style></defs><path class="cls-1" d="M330,0C147.868,0,0,147.868,0,330s147.868,330,330,330,330-147.86801,330-330S512.13199,0,330,0ZM330,30c165.57501,0,300,134.425,300,300s-134.42499,300-300,300S30,495.57501,30,330,164.425,30,330,30Z"/><path class="cls-2" d="M375,94.5v373c0,49,29,48,48,48h16v50h-218v-50h20c18,0,47,0,47-48v-239c0-47-15-51-47-50h-18v-51h20c36,0,57-32,93-33h39Z"/></svg>