<?xml version="1.0" encoding="UTF-8"?><svg id="Layer_1" xmlns="http://www.w3.org/2000/svg" width="660" height="660" viewBox="0 0 660 660"><defs><style>.cls-1,.cls-2{fill:#f13f35;}.cls-2{fill-rule:evenodd;}</style></defs><path class="cls-2" d="M330,0C147.868,0,0,147.868,0,330s147.868,330,330,330,330-147.86801,330-330S512.13199,0,330,0ZM330,30c165.57501,0,300,134.425,300,300s-134.42499,300-300,300S30,495.57501,30,330,164.425,30,330,30Z"/><path class="cls-1" d="M580.99999,429.70001c-22.39996,53.5-67,80.19998-133.59998,80.19998-12.20001,0-25.5,1.5-39.70001,4.60001-21.39999,4.60001-32.10001,11-32.10001,19.10001,0,2.5,1.80002,5.5,5.30002,8.80002,3.59998,3.29999,6.59998,5,9.19998,5-12.69998,0-4.10001.39996,26,1.09998,30.10001.79999,48.89999,1.09998,56.5,1.09998-44.29999,26-118.39999,37.90002-222.29999,35.90002-34.10001-.5-63.40001-15.5-87.8-45.10001-24-28-35.9-59.29999-35.9-93.89999,0-36.60001,12.3-67.79999,37.1-93.60001,24.7-25.69998,55.39999-38.60001,92-38.60001,8.10001,0,19,1.80002,32.5,5.30002,13.5,3.60001,22.5,5.29999,27.10001,5.29999,18.79999,0,42.29999-7.79999,70.29999-23.29999s41.30002-23.3,39.70001-23.3c-5.10001,53.49998-22.89999,89.40001-53.5,107.7-21.89999,12.70001-32.80002,25.20001-32.80002,37.39999,0,7.60001,4.60001,13.80002,13.70001,18.30002,7.10001,3.59998,15,5.39999,23.70001,5.39999,13.19998,0,26.19998-8.10001,39-24.39999,12.69998-16.30002,18.29999-31.10001,16.79999-44.30002-1.5-15.29999-.5-33.60001,3.10001-55,1-6.10001,4.69998-13.60001,11.10001-22.5,6.39999-8.89999,12.09998-14.39999,17.19998-16.39999,0,4.60001-1.60001,12.20001-5,22.89999-3.29999,10.70001-5,18.60001-5,23.70001,0,11.19998,3,19.89999,9.20001,26,9.19998-3.60001,17.29999-15,24.39999-34.39999,6.10001-14.80002,9.70001-29,10.70001-42.80002-21.40002-1-41.90002-10.7-61.5-29-19.60001-18.29999-29.40002-38.2-29.40002-59.59999,0-3.60001.5-7.10001,1.5-10.7,3,4.59999,7.60001,11.7,13.70001,21.39999,8.70001,12.7,15.29999,19.10001,19.89999,19.10001,6.10001,0,9.20001-6.40001,9.20001-19.10001,0-16.3-4.30002-31.10001-13-44.3-9.70001-15.8-22.20001-23.7-37.39999-23.7-7.10001,0-17.80002,3.8-32.10001,11.5-14.30002,7.6-27.30002,11.5-39,11.5-3.60001,0-19.39999-4.6-47.40001-13.8,49.40001-8.1,74.09999-15.5,74.09999-22.1,0-17.3-33.89999-29-101.59999-35.1-6.59999-.5-18.8-1.5-36.7-3.1,2-2.5,16.5-5.3,43.5-8.4,22.89999-2.5,39-3.8,48.10001-3.8,121.19998,0,198.10001,58.8,230.69998,176.5,5.60004-4.59999,8.40002-12.39999,8.40002-23.2,0-13.89999-4.10004-31.5-12.20001-52.7-3.10001-8.2-7.89999-20.60001-14.5-37.2,41.70001,53.2,62.59998,103.6,62.59998,151.2,0,25.09999-5.89996,47.8-17.59998,68.3-7.59998,13.79999-21.90002,31.5-42.79999,53-20.90002,21.5-35.10001,38.10001-42.80002,49.89999,28-7.60001,46.39999-13.5,55-17.60001,19.30002-8.60001,36.89999-21.60001,52.69998-39,0,6.60001-2.79999,16.60001-8.39996,29.80002M248,129.5c0,9.2-5.10001,15-15.3,17.6l-19.89999,3.1c-7.10001,3.60001-17.60001,17.60001-31.3,42-1.5-7.59999-3.8-18.3-6.90001-32.09999-4.59999.5-12.2,4.59999-22.89999,12.2-4.6,3.59999-12,8.89999-22.2,16,3.1-18.3,13.2-36.9,30.59999-55.8,18.3-20.9,36.20001-31.3,53.5-31.3,22.90001,0,34.40001,9.4,34.40001,28.3M380.90001,199.8c0,8.7-4.70001,15.89999-14.10001,21.8-9.39999,5.89999-18.70001,8.79999-27.89999,8.79999-12.20001,0-23.20001-6.89999-32.80002-20.59999-11.69998-16.8-23.7-27.7-35.89999-32.90001,2.5-2.5,5.60001-3.79999,9.2-3.79999,4.60001,0,12.3,3.59999,23.3,10.7,10.89999,7.09999,17.89999,10.7,21,10.7,2.5,0,6.70001-3.60001,12.60001-10.7,5.89999-7.10001,12.29999-10.7,19.5-10.7,16.79999,0,25.19998,8.89999,25.19998,26.7"/></svg>