<?xml version="1.0" encoding="UTF-8"?><svg id="Layer_1" xmlns="http://www.w3.org/2000/svg" width="660" height="660" viewBox="0 0 660 660"><defs><style>.cls-1{fill-rule:evenodd;}.cls-1,.cls-2{fill:#cbc2c0;}</style></defs><path class="cls-1" d="M330,0C147.868,0,0,147.868,0,330s147.868,330,330,330,330-147.86801,330-330S512.13199,0,330,0ZM330,30c165.57501,0,300,134.425,300,300s-134.42499,300-300,300S30,495.57501,30,330,164.425,30,330,30Z"/><path class="cls-2" d="M330,90c49.55801,105.51199,134.48801,190.442,240,240-105.51199,49.55801-190.44199,134.48801-240,240-49.558-105.51199-134.48801-190.44199-240-240,105.51199-49.558,190.442-134.48801,240-240M330,180c-30.056,66.58099-83.41901,119.944-150,150,66.58099,30.056,119.944,83.41901,150,150,30.056-66.58099,83.41901-119.944,150-150-66.58099-30.056-119.944-83.41901-150-150"/></svg>