<?xml version="1.0" encoding="UTF-8"?><svg id="Layer_1" xmlns="http://www.w3.org/2000/svg" width="660" height="660" viewBox="0 0 660 660"><defs><style>.cls-1{fill-rule:evenodd;}.cls-1,.cls-2{fill:#cbc2c0;}</style></defs><path class="cls-1" d="M330,0C147.868,0,0,147.868,0,330s147.868,330,330,330,330-147.86801,330-330S512.13199,0,330,0ZM330,30c165.57501,0,300,134.425,300,300s-134.42499,300-300,300S30,495.57501,30,330,164.425,30,330,30Z"/><path class="cls-2" d="M504,388c-1,126-130,175-201,174-79-1-116-35-116-35l23-31s38,25,92,25c31,0,125-29,125-124,0-51-46-70-69-71-20,0-42,11-73,29l-17-37c110-67,127-87,127-118,0-29-26-48-49-48s-56,6-117,72l-32-26c79-111,149-106,170-105,47,2,103,27,104,87,0,24-8,52-62,93,46,5,96,46,95,115Z"/></svg>