<?xml version="1.0" encoding="UTF-8"?><svg id="Layer_1" xmlns="http://www.w3.org/2000/svg" width="660" height="660" viewBox="0 0 660 660"><defs><style>.cls-1{fill-rule:evenodd;}.cls-1,.cls-2{fill:#cbc2c0;}</style></defs><path class="cls-1" d="M330,0C147.868,0,0,147.868,0,330s147.868,330,330,330,330-147.86801,330-330S512.13199,0,330,0ZM330,30c165.57501,0,300,134.425,300,300s-134.42499,300-300,300S30,495.57501,30,330,164.425,30,330,30Z"/><path class="cls-2" d="M479,385c-1,126-111,177-198,177-50,0-100-18-100-18l15-36s35,12,72,12c41,0,131-30,131-122,0-51-34-103-105-103-37,0-70,22-80,32l-26-5,52-220h177c24,0,26-3,28-8h36l-17,77h-201l-15,70s28-13,68-12c126,1,162,110,162,157l1-1Z"/></svg>