<?xml version="1.0" encoding="UTF-8"?><svg id="Layer_1" xmlns="http://www.w3.org/2000/svg" width="660" height="660" viewBox="0 0 660 660"><defs><style>.cls-1{fill-rule:evenodd;}.cls-1,.cls-2{fill:#26c7fe;}</style></defs><path class="cls-1" d="M330,0C147.868,0,0,147.868,0,330s147.868,330,330,330,330-147.86801,330-330S512.13199,0,330,0ZM330,30c165.57501,0,300,134.425,300,300s-134.42499,300-300,300S30,495.57501,30,330,164.425,30,330,30Z"/><path class="cls-2" d="M434.91999,532.31998c-28.72198,29.23001-64.10001,43.84201-106.13,43.84201-47.16998,0-84.59-16.14001-112.26999-48.44-26.14999-30.76199-39.22-69.97202-39.22-117.64,0-51.26001,22.302-109.72,66.89999-175.34,36.38-53.814,79.19-100.98,128.41-141.48-7.18201,32.814-10.758,56.13-10.758,69.972,0,31.794,9.98401,62.802,29.97601,93.05,24.612,35.87999,43.31,62.56,56.14001,79.968,19.99194,30.25999,29.98798,59.73,29.98798,88.41998.00098,42.55801-14.34601,78.44-43.03998,107.65002M434.14198,368.15198c-7.68597-17.17-16.66199-28.57201-26.91595-34.22,1.53595,3.084,2.31,7.44,2.31,13.08,0,10.77-3.07202,26.14-9.23401,46.13l-9.98401,30.76201c0,17.93997,8.952,26.91599,26.90399,26.91599,18.96002,0,28.45203-12.57001,28.45203-37.686,0-12.804-3.84003-27.79199-11.53204-44.98799"/></svg>