<?xml version="1.0" encoding="UTF-8"?><svg id="Layer_1" xmlns="http://www.w3.org/2000/svg" width="660" height="660" viewBox="0 0 660 660"><defs><style>.cls-1{fill-rule:evenodd;}.cls-1,.cls-2{fill:#cbc2c0;}</style></defs><path class="cls-1" d="M330,0C147.868,0,0,147.868,0,330s147.868,330,330,330,330-147.86801,330-330S512.13199,0,330,0ZM330,30c165.57501,0,300,134.425,300,300s-134.42499,300-300,300S30,495.57501,30,330,164.425,30,330,30Z"/><path class="cls-2" d="M405,310c9-92-31-174-81-174-53,0-67,65-67,109,0,19,3,119,69,119,14,0,49-4,79-54ZM219,523c155,1,176-141,176-141,0,0-40,33-90,33-113,0-156-148-111-229,34-61,71-91,132-91,113,0,160,118,160,203,0,37-17,255-268,265"/></svg>