<?xml version="1.0" encoding="UTF-8"?><svg id="Layer_1" xmlns="http://www.w3.org/2000/svg" width="660" height="660" viewBox="0 0 660 660"><defs><style>.cls-1{fill-rule:evenodd;}.cls-1,.cls-2{fill:#cbc2c0;}</style></defs><path class="cls-1" d="M330,0C147.868,0,0,147.868,0,330s147.868,330,330,330,330-147.86801,330-330S512.13199,0,330,0ZM330,30c165.57501,0,300,134.425,300,300s-134.42499,300-300,300S30,495.57501,30,330,164.425,30,330,30Z"/><g id="path24"><path class="cls-2" d="M338,523c27,0,85-18,85-71,0-36-26-70-118-108-47,30-61,62-61,89,0,62,49,90,93,90M409,209c0-36-30-73-80-73-49,0-73,33-73,58,0,46,37,59,99,89,16-8,53.98001-25.81599,53.98001-72.81599l.01999-1.18401ZM339,563c-91,0-162-51-162-125,0-73,86-115,86-115-21-13-76-45-76-106,0-99,99-124,150-124,108,0,138,88,138,111,0,50-45,85-75,98,0,0,84,33,84,129,0,87-83,132-145,132"/></g></svg>