<?xml version="1.0" encoding="UTF-8"?><svg id="Layer_1" xmlns="http://www.w3.org/2000/svg" width="660" height="660" viewBox="0 0 660 660"><defs><style>.cls-1,.cls-2{fill:#fff7d8;}.cls-2{fill-rule:evenodd;}</style></defs><path class="cls-2" d="M330,0C147.868,0,0,147.868,0,330s147.868,330,330,330,330-147.86801,330-330S512.13199,0,330,0ZM330,30c165.57501,0,300,134.425,300,300s-134.42499,300-300,300S30,495.57501,30,330,164.425,30,330,30Z"/><path class="cls-1" d="M616.20001,372.39999c-39.40002-22.19998-64.60004-33.29999-75.70001-33.29999-8.10001,0-14.39999,6.19998-18.89999,18.60001-4.5,12.39999-13.60001,18.5-27.20001,18.5-5.60001,0-16.89999-2-34.10001-6-9.59998,14.59998-14.39999,24-14.39999,28,0,5.59998,4.10001,12.09998,12.39999,19.69998,8.30002,7.60001,15.20001,11.30002,20.90002,11.30002,3.59998,0,8.5-.70001,14.69998-2.30002,6.20001-1.5,10.30002-2.29999,12.39999-2.29999,6.20001,0,9.30002,11.39999,9.30002,34.10001,0,21.69998-5,55-15.10001,99.89996-13.10001-51.49997-27-77.19998-41.60001-77.19998-2,0-6.19998,1.5-12.5,4.60001-6.29999,3-11,4.5-14,4.5-14.60001,0-27.69998-13.39999-39.39999-40.10001-23.20001,3.5-34.79999,15.39999-34.79999,35.60001,0,10.10001,4.69998,18.20001,14,24.20001,9.29999,6.09998,14,10.39999,14,12.89999,0,13.60001-19.90002,34.60001-59.80002,62.80002-21.19998,15.09998-35.79999,25.69995-43.89999,31.79999,7-9.10004,14.10001-20.90002,21.20001-35.60004,8.09998-16.59998,12.09998-29.5,12.09998-38.59998,0-5-5.79999-12.10001-17.39999-21.20001-11.60001-9.09998-17.39999-18.69998-17.39999-28.79999,0-8.60001,3-19.20001,9.10001-31.79999-6.60001-7.60001-14.40001-11.40002-23.5-11.40002-20.20001,0-30.3,6.60001-30.3,19.70001,0-9.10001,0-2.29999,0,20.39999.5,16.70001-12.10001,25-37.90001,25-19.7,0-52.7-4.60001-99.2-13.60001,52.5-13.09998,78.7-28.29999,78.7-45.39999,0,2-1-4-3-18.19998-2-15.60001,9.10001-29.80002,33.3-42.40002-4.5-23.19998-16.59999-34.79999-36.3-34.79999-3,0-8.59999,5.29999-16.59999,15.89999-8.10001,10.60001-15.60001,15.89999-22.7,15.89999-12.1,0-27.8-13.09998-46.9-39.39999-9.1-13.10001-23-32.5-41.6-58.29999,11.6,6.10001,23.2,12.10001,34.8,18.19998,15.1,7.10001,27.3,10.60001,36.3,10.60001,7.10001,0,14-6.19998,20.8-18.60001,6.8-12.39999,15.8-18.59998,26.89999-18.59998,1.5,0,11.60001,3,30.3,9.09998,9.60001-14.59999,14.40001-25.49998,14.40001-32.59999,0-6.09999-3.70001-13-11-20.8-7.3-7.79999-14-11.7-20.10001-11.7-2.5,0-6.39999.8-11.7,2.3s-9.2,2.3-11.7,2.3c-9.1,0-13.6-11.40001-13.6-34.10001,0-6.09999,5.8-40.59999,17.4-103.7-.5,7.6,2.8,21.7,9.8,42.4,8.60001,25.2,18.7,37.9,30.3,37.9,2,0,6.10001-1.5,12.10001-4.5,6.09999-3,10.79999-4.5,14.39999-4.5,11.60001,0,21.2,6.59999,28.8,19.7l11.39999,20.39999c10.60001,0,19.40001-3.79999,26.50002-11.29999,7.09998-7.60001,10.59998-16.70001,10.59998-27.3,0-11.10001-4.69998-19.60001-14-25.4-9.39999-5.8-13.99998-10.2-13.99998-13.2,0-10.6,16.7-28.5,49.99998-53.7,26.70001-20.2,44.20001-32,52.20001-35.6-21.70001,29.3-32.60001,50.7-32.60001,64.3,0,7.10001,4.30002,14.60001,12.89999,22.7,10.60001,9.6,16.70001,16.4,18.20001,20.4,5,11.59999,4.5,27.5-1.5,47.7,13.60001,9.60001,24,14.39999,31,14.39999,14.60001,0,21.89999-7.59999,21.89999-22.7,0-1.5-.60001-6.3-1.89999-14.39999-1.29999-8.10001-1.60001-12.60001-1.10001-13.60001,2-7.1,15.89999-10.6,41.60001-10.6,16.20001,0,49.70001,4.5,100.70001,13.6-11.10004,3-27.80002,7.60001-50,13.60001-20.20001,6.09999-30.30002,12.89999-30.30002,20.39999,0,3.5,1.30002,9.60001,3.80002,18.2,2.5,8.60001,3.79999,14.90001,3.79999,18.90001,0,7.09999-4.5,13.59999-13.60001,19.7l-25.69998,18.2c6.09998,11.10001,10.09998,17.7,12.09998,19.7,5,6.10001,11.90002,9.10001,20.40002,9.10001,6.09998,0,11.59998-5.29999,16.69998-15.89999,5-10.60001,13.10001-15.90001,24.20001-15.90001,13.60001,0,28.99997,12.60001,46.19998,37.90001,9.60004,14.19998,24.5,35.60001,44.60004,64.39999M448.39999,328.60001c0-32.30002-11.89999-60.3-35.60001-84-23.69998-23.70001-51.69998-35.60001-84-35.60001-32.79999,0-61.09999,11.7-84.79999,35.2s-35.8,51.59999-36.3,84.40001c-.5,32.29999,11.5,60.19998,36,83.60001,24.5,23.5,52.90001,35.19998,85.2,35.19998,34.30002,0,63-11.19998,85.89999-33.69998,23-22.40002,34.20001-50.80002,33.70001-85.10001M437.10001,328.60001c0,30.79999-10.30002,56.29999-31,76.39999-20.70001,20.20001-46.39999,30.29999-77.20001,30.29999-29.79999,0-55.29999-10.29999-76.39999-31-21.2-20.69998-31.8-45.89999-31.8-75.69998,0-29.30002,10.7-54.40001,32.2-75.3,21.5-20.90001,46.80002-31.40001,76.10001-31.40001s54.60001,10.60001,76.10001,31.8c21.39999,21.2,32.19998,46.2,32.19998,74.90001"/></svg>