<?xml version="1.0" encoding="UTF-8"?><svg id="Layer_1" xmlns="http://www.w3.org/2000/svg" width="660" height="660" viewBox="0 0 660 660"><defs><style>.cls-1,.cls-2{fill:#b264ff;}.cls-2{fill-rule:evenodd;}</style></defs><path class="cls-2" d="M330,0C147.868,0,0,147.868,0,330s147.868,330,330,330,330-147.86801,330-330S512.13199,0,330,0ZM330,30c165.57501,0,300,134.425,300,300s-134.42499,300-300,300S30,495.57501,30,330,164.425,30,330,30Z"/><path class="cls-1" d="M574.20001,321.70001c0,33.09998-12,55.69998-36.10001,67.69998-7,3.5-29.10001,8.30002-66.20001,14.30002-24.10001,4-36.10001,13.29999-36.10001,27.79999v60.89999c0,2.5.80002,10.30002,2.30002,23.30002l2.29999,24.09998c0,7.5-1.79999,19.79999-5.29999,36.90002-9.5,2-20.60001,4.29999-33.10001,6.79999-4-15.09998-6-25.29999-6-30.90002,0-2.5.60001-6.29999,1.89999-11.29999,1.20001-5,1.89999-8.79999,1.89999-11.29999,0-3.5-3.09998-13.29999-9.39999-29.29999h-11.69998c-1.5,2.5-2.10001,5.79999-1.60001,9.79999,2,8.5,2.79999,15.79999,2.29999,21.79999-8.5,6-20.29999,14.10004-35.39999,24.10004-3.5-1-4.79999-1.5-3.79999-1.5v-53.40002c-1-2.5-3.5-3.5-7.5-3h-9l-9,70.70001c-7,.5-15.60001.5-25.60001,0-3.5-16.5-9.8-41.10001-18.8-73.70001h-6c-5.5,17.60001-8.5,27.10001-9,28.60001,0,2,.59999,5.89999,1.89999,11.69998,1.2,5.80002,1.90001,9.70001,1.90001,11.70001,0,1.5-.5,5.29999-1.5,11.29999l-2.3,18.10004c-1,1-2.3,1.5-3.8,1.5-15,0-25.10001-3.80005-30.10001-11.30005s-7-18.09998-6-31.59998l6-90.29999c0-1.5.5-3.5,1.5-6s1.5-4.30002,1.5-5.30002c0-4-4.29999-12-12.79999-24.10001-1.5-.5-9.3-2.29999-23.3-5.29999-8.5-2-25.3-5.5-50.4-10.5-34.6-6.5-51.9-34.29999-51.9-83.5,0-73.2,30.1-134.2,90.3-182.8,2.5,13.5,6.8,31.60001,12.8,54.2,4.5,1,14.29999,3.3,29.29999,6.8,3,1,18.3,6.5,45.90001,16.60001-14.10001-8.5-32.40001-22.3-54.90001-41.40001-8.5-9.99999-12.79999-26.8-12.79999-50.39999,0-5.5,9.5-12,28.59999-19.6,17-7,29.90001-11,38.40001-12,27.10001-3.5,47.89999-5.3,62.5-5.3,62.69998,0,113.39999,16.1,152,48.2-12.5,14.6-34.10001,30.1-64.70001,46.59999,12.10001.5,29.60001-4.2,52.70001-14.3,23.10001-10,32.89999-15,29.29999-15,4,0,12.10001,8,24.10001,24.1,9,12,16.29999,22.8,21.79999,32.40001,16,28.59999,26.79999,59.5,32.40002,92.60001,0,11.59998.20001,19.79999.79999,24.79999v6l-.29999-.29999ZM286,335.20001c0-21.60001-9.39999-42-28.2-61.30002-18.8-19.29999-39-29-60.60001-29-19.09999,0-35.89999,8.10001-50.39999,24.20001-14.60001,16.2-21.8,34.10001-21.8,53.79999,0,17.20001,8.3,28.30002,24.8,33.30002,10.5,3,25.3,4.79999,44.39999,5.29999h41.40001c33.59999.5,50.39999-8.29999,50.39999-26.29999M368,428.5v-23.29999c-3.5-6.5-7-13.30002-10.5-20.30002-3-10-8.5-24.10001-16.60001-42.10001l-8.29999,88c0,7-1.5,10.5-4.5,10.5-2,0-3.5-.5-4.5-1.5-3.5-53.19998-5.30002-76.19998-5.30002-69.19998v-26.30002c-1-1.5-2.19998-2.29999-3.69998-2.29999-17.10001,17.60001-25.60001,45.89999-25.60001,85,0,21.60001,2,34.89999,6,39.89999,4-1,8.5-2.79999,13.5-5.29999,2-1,7.79999-1.5,17.29999-1.5s21.10001,3,34.60001,9c5,0,7.5-13.5,7.5-40.60001M538,323.70001c0-20.20001-7.5-38.20001-22.60001-54.10001-15.10001-15.90001-32.39999-23.8-51.89999-23.8-21.10001,0-40.79999,9.59999-59.10001,29-18.29999,19.3-27.5,39.49998-27.5,60.59999,0,17.60001,8.5,26.30002,25.60001,26.30002h86.5c32.60001-.5,48.89999-13.10001,48.89999-37.90002"/></svg>