<?xml version="1.0" encoding="UTF-8"?><svg id="Layer_1" xmlns="http://www.w3.org/2000/svg" width="660" height="660" viewBox="0 0 660 660"><defs><style>.cls-1{fill-rule:evenodd;}.cls-1,.cls-2{fill:#cbc2c0;}</style></defs><path class="cls-1" d="M330,0C147.868,0,0,147.868,0,330s147.868,330,330,330,330-147.86801,330-330S512.13199,0,330,0ZM330,30c165.57501,0,300,134.425,300,300s-134.42499,300-300,300S30,495.57501,30,330,164.425,30,330,30Z"/><path class="cls-2" d="M332.5051,524c27,0,79-14,79-169,0-166-45-217-87-217-34,0-76,26-76,169,0,168,49,217,84,217M332.5051,564c-91,0-164-88-163-225,0-111,60-243,155-243,101,0,166,94,166,219,0,213-123,249-159,249"/></svg>