<?xml version="1.0" encoding="UTF-8"?><svg id="Layer_1" xmlns="http://www.w3.org/2000/svg" width="660" height="660" viewBox="0 0 660 660"><defs><style>.cls-1{fill-rule:evenodd;}.cls-1,.cls-2{fill:#cbc2c0;}</style></defs><path class="cls-1" d="M330,0C147.868,0,0,147.868,0,330s147.868,330,330,330,330-147.86801,330-330S512.13199,0,330,0ZM330,30c165.57501,0,300,134.425,300,300s-134.42499,300-300,300S30,495.57501,30,330,164.425,30,330,30Z"/><path class="cls-2" d="M339,522c27,0,66-20,66-110,0-70-26-119-68-119-34,0-65,27-79,55-6,98,31,173,80,173M339,563c-91,0-161-83-161-202,0-80,51-260,267-266v38c-160,6-178,147-178,147,0,0,38-36,94-36,34,0,124,25,124,150,0,118-83,169-145,169"/></svg>