<?xml version="1.0" encoding="UTF-8"?><svg id="Layer_1" xmlns="http://www.w3.org/2000/svg" width="660" height="660" viewBox="0 0 660 660"><defs><style>.cls-1{fill-rule:evenodd;}.cls-1,.cls-2{fill:#cbc2c0;}</style></defs><path class="cls-1" d="M330,0C147.868,0,0,147.868,0,330s147.868,330,330,330,330-147.86801,330-330S512.13199,0,330,0ZM330,30c165.57501,0,300,134.425,300,300s-134.42499,300-300,300S30,495.57501,30,330,164.425,30,330,30Z"/><path class="cls-2" d="M542,383.5h-216l79.10001-56.29999c-29.39999-23.30002-63.39999-35-101.89999-35-19.30002,0-32.50002,3.69998-39.50002,11-7.09999,7.39999-10.7,20.69998-10.7,39.89999,0,53.19998,27.39999,110,82.20001,170.39999l-62.30002,63.09998c-72.5-88.19998-108.79999-167.09998-108.79999-236.49997,0-41.60001,12.5-74.70001,37.59999-99.3,25.10001-24.60001,58.5-36.90001,100.00002-36.90001,50.69998,0,106,19.3,165.89999,57.8l46.39999-79.09999,28.20001,200.79999"/></svg>