<?xml version="1.0" encoding="UTF-8"?><svg id="Layer_1" xmlns="http://www.w3.org/2000/svg" width="660" height="660" viewBox="0 0 660 660"><defs><style>.cls-1{fill-rule:evenodd;}.cls-1,.cls-2{fill:#cbc2c0;}</style></defs><path class="cls-1" d="M330,0C147.868,0,0,147.868,0,330s147.868,330,330,330,330-147.86801,330-330S512.13199,0,330,0ZM330,30c165.57501,0,300,134.425,300,300s-134.42499,300-300,300S30,495.57501,30,330,164.425,30,330,30Z"/><g id="path165"><path class="cls-2" d="M361.97583,522v-19.78198c28.21802-3.12602,42.35413-11.32201,42.35413-24.492,0-9.492-3.77417-18.98401-11.29797-28.47601l-78.04797-96.05999-61.63806,72.666c-15.42004,17.83797-23.17822,32.59197-23.17822,44.124,0,17.85599,14.12402,28.62598,42.42004,32.32201v19.69798H122.28198v-19.72202c19.03198-3.65401,35.20203-10.51199,48.61194-20.496,9.23401-7.338,21.82214-20.22597,37.70984-38.62798l92.69421-107.49001-107.20203-129.96c-13.89001-16.78201-24.7262-27.79801-32.40601-33.06-10.34399-7.35-24.7262-12.07201-43.21802-14.166v-20.478h177.23401v19.71c-26.71802,5.262-40.05615,13.404-40.05615,24.444,0,7.38001,3.56396,15.516,10.75818,24.432l70.89587,85.93199,57.04797-70.14599c10.26599-12.624,15.42004-23.646,15.42004-33.12,0-15.774-12.62988-26.04-37.80579-30.774v-20.478h141.07178v19.746c-12.32996,2.634-20.83813,5.004-25.37988,7.128-15.42004,7.374-38.9762,29.214-70.78198,65.52-5.11194,5.814-26.71802,32.358-64.73401,79.70999l113.86194,140.17799c24.67786,30.46802,49.82996,47.826,75.51599,51.996v19.72202h-179.54407Z"/></g></svg>