<?xml version="1.0" encoding="UTF-8"?><svg id="Layer_1" xmlns="http://www.w3.org/2000/svg" width="660" height="660" viewBox="0 0 660 660"><defs><style>.cls-1,.cls-2{fill:#29eea6;}.cls-2{fill-rule:evenodd;}</style></defs><path class="cls-2" d="M330,0C147.868,0,0,147.868,0,330s147.868,330,330,330,330-147.86801,330-330S512.13199,0,330,0ZM330,30c165.57501,0,300,134.425,300,300s-134.42499,300-300,300S30,495.57501,30,330,164.425,30,330,30Z"/><path class="cls-1" d="M591.09998,365.89999c0,10-3.89996,19-11.59998,27s-16.59998,12-26.59998,12c-16.00003,0-27.70001-7.5-35.20001-22.5l-35.20001-1.5c-7.5,0-22.29999,3.30002-44.20001,9.80002-23.5,6.5-37,11.69998-40.5,15.69998-5.5,6-10,20-13.5,42-3,18-4.5,31.20001-4.5,39.70001,0,13.5,2.10001,23.39999,6.40002,29.60001,4.29999,6.19998,13,11.5,26.19998,15.69998,13.20001,4.20001,21.39999,6.60001,24.39999,7.10001,2,0,5.20001-.20001,9.80002-.70001h9c6.5,0,13.19998,1,20.19998,3,10,3,14.30002,7,12.80002,12-7-1-19.20001.5-36.70001,4.5l21,10.5c0,6-8.5,9-25.5,9-4.5,0-10.60001-1-18.39999-3-7.70001-2-12.89999-3-15.39999-3h-9.70001c-.5,5-2,12.5-4.5,22.5-8.5-.5-18.5-5.5-30-15s-18.69998-14.20001-21.69998-14.20001-7.30002,4.80005-12.70001,14.20001c-5.5,9.5-8.20001,16-8.20001,19.5-6.5-3.5-12-10-16.5-19.5-2-6.5-4.19998-13-6.69998-19.5-5,.5-14.20001,11-27.70001,31.5h-3.79999c-1-1.5-4.8-12-11.20001-31.5-15.5-5-30-7.5-43.5-7.5-6.5,0-16.5,1.5-30,4.5l-21-1.5c3-3,11.70001-8.70001,26.20001-17.19998,17-10,30-15,39-15,1.5,0,3.5.29999,6,.79999s4.5.80002,6,.80002c3.5,0,9.09999-1.90002,16.89999-5.60001,7.7-3.70001,12.2-7.10001,13.5-10.10001s1.89999-10.79999,1.89999-23.20001c0-28.5-7.5-49.69998-22.5-63.69998-13-12.5-34.5-21.5-64.5-27-8,28.5-30.5,42.69998-67.39999,42.69998-12,0-24-7.19998-36-21.69998-12.3-14.80002-18.3-28-18.3-40,0-18.5,7.7-33.70001,23.2-45.70001-12.5-13-18.7-26.19998-18.7-39.69998,0-12.50002,3.9-23.50002,11.6-33.00002s17.9-15,30.4-16.5c-1-16,4.2-27,15.7-33-5.5-5.5-8.2-15.2-8.2-29.2,0-16.5,5.5-30.2,16.5-41.2s24.7-16.5,41.2-16.5c18,0,32.70001,6.3,44.20001,18.8,14.5-49.5,45.7-74.2,93.69998-74.2,25,0,47,10,66,30,7,7.5,10.5,11.5,10.5,12-6,0-3-1.1,9-3.4,12-2.2,20.70001-3.4,26.20001-3.4,19.5,0,36.70001,7.2,51.70001,21.7,13,13,22,29.5,27,49.5,3.5.5,9,2,16.5,4.5,11,5.5,16.5,15,16.5,28.5,0,2.5-2,7.3-6,14.2,32,18,48,43,48,75,0,9-3.5,21.5-10.5,37.5,13,7.5,19.5,18.5,19.5,33M282.39999,399v-9.70001c0-11.5-5.59999-22-16.89999-31.5-11.2-9.5-22.60001-14.19998-34.10001-14.19998-14,0-27,3.19998-39,9.69998,26.5-1.5,56.5,13.80002,89.90001,45.70001M268.8,306.10001c-7.5-8.5-14-17.20001-19.5-26.20001-21,5.5-31.5,11.70001-31.5,18.70001,6-.5,14.7.60001,26.2,3.39999s19.7,4.10001,24.8,4.10001M314.5,282.89999v-33c-12-2-19.29999-3-21.70001-3v11.20001l21.70001,24.7M411.89999,261.8c-6-2.5-17.19998-7.5-33.69998-15v64.49998c23.5-13.5,34.69998-29.99998,33.69998-49.49998M453.10001,350.29999l-16.5-20.19998c-10,7-20.10001,14.10001-30.39999,21.39999-10.30002,7.20001-19.10001,15.39999-26.60001,24.39999,22.5-12,47-20.5,73.39999-25.5"/></svg>