<?xml version="1.0" encoding="UTF-8"?><svg id="Layer_1" xmlns="http://www.w3.org/2000/svg" width="660" height="660" viewBox="0 0 660 660"><defs><style>.cls-1{fill-rule:evenodd;}.cls-1,.cls-2{fill:#cbc2c0;}</style></defs><path class="cls-1" d="M330,0C147.868,0,0,147.868,0,330s147.868,330,330,330,330-147.86801,330-330S512.13199,0,330,0ZM330,30c165.57501,0,300,134.425,300,300s-134.42499,300-300,300S30,495.57501,30,330,164.425,30,330,30Z"/><path class="cls-2" d="M268,100h217l-1,43s-124,217-126,411h-80c-8-138,147-385,147-385l-145,1c-42,0-54,29-64,59h-41l31-136h27c10,6,22,7,35,7Z"/></svg>