<?xml version="1.0" encoding="UTF-8" standalone="no"?>
<!DOCTYPE svg PUBLIC "-//W3C//DTD SVG 1.1//EN" "http://www.w3.org/Graphics/SVG/1.1/DTD/svg11.dtd">
<svg width="100%" height="100%" viewBox="0 0 1000 1000" version="1.1" xmlns="http://www.w3.org/2000/svg" xmlns:xlink="http://www.w3.org/1999/xlink" xml:space="preserve" xmlns:serif="http://www.serif.com/" style="fill-rule:evenodd;clip-rule:evenodd;stroke-linejoin:round;stroke-miterlimit:2;">
    <g transform="matrix(1,0,0,1,-2416,0)">
        <g id="R" transform="matrix(1,0,0,1,-0.333333,0)">
            <rect x="2416.33" y="0" width="1000" height="1000" style="fill:none;"/>
            <clipPath id="_clip1">
                <rect x="2416.33" y="0" width="1000" height="1000"/>
            </clipPath>
            <g clip-path="url(#_clip1)">
                <g transform="matrix(1,0,0,1,-1207.67,0)">
                    <path d="M3827.66,809.071C3827.66,809.071 3951.99,869.638 4124,1000C4124,1000 4232.26,910.5 4424.81,807.724L4379.27,728.366L4472.94,651.609C4472.94,651.609 4465.59,483.584 4578.55,291.244C4578.55,291.244 4479.45,257.621 4500.26,122.321L4256.98,0C4256.98,0 4267.75,67.217 4232.76,80L4019.5,78.654C4019.5,78.654 3981.83,70.846 3993.93,-0L3749.05,124.254C3749.05,124.254 3770.16,256.787 3669.45,288.406C3669.45,288.406 3771.65,453.779 3778.2,652.316L3872.07,730.056L3827.66,809.071Z"/>
                </g>
                <g transform="matrix(1,0,0,1,-1207.67,0)">
                    <path d="M3984.52,822.743C3917.51,743.721 3809.63,638.138 3809.63,638.138C3811.26,488.772 3714.2,300.441 3714.2,300.441C3790.06,262.288 3783.2,141.334 3783.2,141.334L3963.42,51.58C3970.72,93.334 4009.69,110.84 4009.69,110.84L4241.86,109.216C4283.26,85.675 4285.69,51.58 4285.69,51.58L4465.9,143.984C4459.41,261.553 4534.91,302.738 4534.91,302.738C4431.81,505.328 4441.55,637.44 4441.55,637.44C4278.39,800.046 4262.15,824.96 4262.15,824.96L4352.26,748.653L4375.8,793.3C4262.15,854.183 4124,959.933 4124,959.933C3980.98,850.563 3871.69,795.143 3871.69,795.143L3896.85,750.496L3984.52,822.743ZM3938.78,206.15L3838.78,308.15L3914.78,598.15L4124,794.15L4335.78,597.15L4411.78,306.15L4311.78,206.15L3938.78,206.15Z" style="fill:url(#_Linear2);"/>
                </g>
                <g transform="matrix(1,0,0,1,-1207.67,0)">
                    <rect x="4048.78" y="229.15" width="152" height="158" style="fill:white;"/>
                </g>
                <g transform="matrix(1,0,0,1,-1207.67,0)">
                    <path d="M3884.78,399.15L4037.78,400.15L4037.78,564.15L3926.78,564.15L3884.78,399.15Z" style="fill:white;"/>
                </g>
                <g transform="matrix(-1,0,0,1,7041.89,0)">
                    <path d="M3884.78,399.15L4037.78,400.15L4037.78,564.15L3926.78,564.15L3884.78,399.15Z" style="fill:white;"/>
                </g>
                <g transform="matrix(1,0,0,1,-1207.67,0)">
                    <path d="M4048.78,574.15L4200.78,574.15L4200.78,696.15L4124.78,762.15L4048.78,697.15L4048.78,574.15Z" style="fill:white;"/>
                </g>
            </g>
        </g>
    </g>
    <defs>
        <linearGradient id="_Linear2" x1="0" y1="0" x2="1" y2="0" gradientUnits="userSpaceOnUse" gradientTransform="matrix(777.909,452.512,-452.512,777.909,3774.36,111.639)"><stop offset="0" style="stop-color:rgb(141,116,47);stop-opacity:1"/><stop offset="0.07" style="stop-color:rgb(150,125,56);stop-opacity:1"/><stop offset="0.18" style="stop-color:rgb(174,149,79);stop-opacity:1"/><stop offset="0.2" style="stop-color:rgb(179,154,84);stop-opacity:1"/><stop offset="0.22" style="stop-color:rgb(185,160,89);stop-opacity:1"/><stop offset="0.3" style="stop-color:rgb(202,176,104);stop-opacity:1"/><stop offset="0.39" style="stop-color:rgb(212,186,113);stop-opacity:1"/><stop offset="0.5" style="stop-color:rgb(215,189,116);stop-opacity:1"/><stop offset="0.61" style="stop-color:rgb(212,186,113);stop-opacity:1"/><stop offset="0.7" style="stop-color:rgb(202,176,104);stop-opacity:1"/><stop offset="0.78" style="stop-color:rgb(185,160,89);stop-opacity:1"/><stop offset="0.8" style="stop-color:rgb(179,154,84);stop-opacity:1"/><stop offset="0.86" style="stop-color:rgb(163,138,69);stop-opacity:1"/><stop offset="0.94" style="stop-color:rgb(147,122,53);stop-opacity:1"/><stop offset="1" style="stop-color:rgb(141,116,47);stop-opacity:1"/></linearGradient>
    </defs>
</svg>
