<?xml version="1.0" encoding="UTF-8" standalone="no"?>
<!DOCTYPE svg PUBLIC "-//W3C//DTD SVG 1.1//EN" "http://www.w3.org/Graphics/SVG/1.1/DTD/svg11.dtd">
<svg width="100%" height="100%" viewBox="0 0 1000 1000" version="1.1" xmlns="http://www.w3.org/2000/svg" xmlns:xlink="http://www.w3.org/1999/xlink" xml:space="preserve" xmlns:serif="http://www.serif.com/" style="fill-rule:evenodd;clip-rule:evenodd;stroke-linejoin:round;stroke-miterlimit:2;">
    <g transform="matrix(1,0,0,1,-4832,0)">
        <g id="WM" transform="matrix(1,0,0,1,-0.333333,0)">
            <rect x="4832.33" y="0" width="1000" height="1000" style="fill:none;"/>
            <clipPath id="_clip1">
                <rect x="4832.33" y="0" width="1000" height="1000"/>
            </clipPath>
            <g clip-path="url(#_clip1)">
                <g transform="matrix(1,0,0,1,1208.33,0)">
                    <path d="M3827.66,809.071L3872.07,730.056L3778.2,652.316C3771.65,453.779 3669.45,288.406 3669.45,288.406C3770.16,256.787 3749.05,124.254 3749.05,124.254L3993.93,-0C3981.83,70.846 4019.5,78.654 4019.5,78.654L4232.76,80C4267.75,67.217 4256.98,0 4256.98,0L4500.26,122.321C4479.45,257.621 4578.55,291.244 4578.55,291.244C4465.59,483.584 4472.94,651.609 4472.94,651.609L4379.27,728.366L4424.81,807.724C4232.26,910.5 4124,1000 4124,1000C3951.99,869.638 3827.66,809.071 3827.66,809.071ZM3984.52,822.743L3896.85,750.496L3871.69,795.143C3871.69,795.143 3980.98,850.563 4124,959.933C4124,959.933 4262.15,854.183 4375.8,793.3L4352.26,748.653L4262.15,824.96C4262.15,824.96 4278.39,800.046 4441.55,637.44C4441.55,637.44 4431.81,505.328 4534.91,302.738C4534.91,302.738 4459.41,261.553 4465.9,143.984L4285.69,51.58C4285.69,51.58 4283.26,85.675 4241.86,109.216L4009.69,110.84C4009.69,110.84 3970.72,93.334 3963.42,51.58L3783.2,141.334C3783.2,141.334 3790.06,262.288 3714.2,300.441C3714.2,300.441 3811.26,488.772 3809.63,638.138C3809.63,638.138 3917.51,743.721 3984.52,822.743ZM3938.78,206.15L4311.78,206.15L4411.78,306.15L4335.78,597.15L4124,794.15L3914.78,598.15L3838.78,308.15L3938.78,206.15ZM3884.78,399.15L3926.78,564.15L4037.78,564.15L4037.78,400.15L3884.78,399.15ZM4364.78,399.15L4211.78,400.15L4211.78,564.15L4322.78,564.15L4364.78,399.15ZM4200.78,229.15L4048.78,229.15L4048.78,387.15L4200.78,387.15L4200.78,229.15ZM4048.78,574.15L4048.78,697.15L4124.78,762.15L4200.78,696.15L4200.78,574.15L4048.78,574.15Z"/>
                </g>
            </g>
        </g>
    </g>
</svg>
