<?xml version="1.0" encoding="UTF-8" standalone="no"?><!DOCTYPE svg PUBLIC "-//W3C//DTD SVG 1.1//EN" "http://www.w3.org/Graphics/SVG/1.1/DTD/svg11.dtd"><svg width="100%" height="100%" viewBox="0 0 300 223" version="1.1" xmlns="http://www.w3.org/2000/svg" xmlns:xlink="http://www.w3.org/1999/xlink" xml:space="preserve" xmlns:serif="http://www.serif.com/" style="fill-rule:evenodd;clip-rule:evenodd;stroke-miterlimit:10;"><g id="Layer_1_copy_2"><path d="M300,0l0,223l-300,0l0,-223l300,0Zm-153,6l-141,0l0,211l141,0l0,-211Zm147,0l-141,0l0,211l141,0l0,-211Zm-269,23l0,165l30,0l0,-73l13.664,73.041l16.287,-0.094l12.049,-68.947l0,69l31,0l0,-165l-39,0l-12.5,80.01l-12.5,-80.01l-39,0Zm139,115l0,60l119,0l0,-60l-119,0Zm76,-126l0,114l43,0l0,-114l-43,0Zm-76,0l0,51l65,0l0,-51l-65,0Zm0,63l0,51l65,0l0,-51l-65,0Z" style="fill-rule:nonzero;"/><path d="M147,6l0,211l-141,0l0,-211l141,0Zm-83,23l-39,0l0,165l30,0l0,-73l13.664,73.041l16.287,-0.094l12.049,-68.947l0,69l31,0l0,-165l-39,0l-12.5,80.01l-12.5,-80.01Zm230,-23l0,211l-141,0l0,-211l141,0Zm-65,12l-65,0l0,51l65,0l0,-51Zm54,0l-43,0l0,114l43,0l0,-114Zm-54,63l-65,0l0,51l65,0l0,-51Zm54,63l-119,0l0,60l119,0l0,-60Z" style="fill:#fff;fill-rule:nonzero;stroke:#231f20;stroke-width:1px;"/></g></svg>