<?xml version="1.0" encoding="UTF-8"?><svg xmlns="http://www.w3.org/2000/svg" viewBox="0 0 10 10"><g id="uuid-b20160bd-064e-49bb-8d8e-a90879dc63d5" shape-rendering="crispEdges"><polyline points="7 9 8 9 8 8 9 8 9 7 10 7 10 6 10 5 10 4 10 3 9 3 9 2 8 2 8 3 7 3 7 4 6 4 6 5 5 5 4 5 4 6 3 6 3 7 2 7 2 8 2 9 3 9 3 10 4 10 5 10 6 10 7 10 7 9" fill="#00a0d9"/><path d="M3,7v-1h1v-1h2v-1h1v-1h1V1h-1V0H3v1h-1v1h-1v1H0v4h1v1h1v-1h1Z" fill="#d5ad5d"/><polygon points="4 3 4 4 5 4 5 3 6 3 6 2 5 2 5 1 4 1 4 2 3 2 3 3 4 3"/><polygon points="7 7 6 7 6 6 5 6 5 7 4 7 4 8 4 9 5 9 6 9 7 9 7 8 7 7"/></g></svg>