<?xml version="1.0" encoding="UTF-8"?><svg xmlns="http://www.w3.org/2000/svg" viewBox="0 0 10 10"><g id="uuid-0eea4db0-b787-4d33-9489-720cb6746401" shape-rendering="crispEdges"><polygon points="9 3 9 2 8 2 8 1 7 1 7 0 6 0 5 0 4 0 3 0 3 1 2 1 2 2 1 2 1 3 0 3 0 4 0 5 0 6 0 7 1 7 1 8 2 8 2 9 3 9 3 10 4 10 5 10 6 10 7 10 7 9 8 9 8 8 9 8 9 7 10 7 10 6 10 5 10 4 10 3 9 3" fill="#ccc2c0"/><polygon points="6 2 5 2 4 2 4 3 5 3 6 3 7 3 7 4 8 4 8 3 8 2 7 2 6 2"/><polygon points="5 4 5 5 6 5 7 5 7 4 6 4 5 4"/><polygon points="8 6 8 5 7 5 7 6 7 7 6 7 5 7 5 6 4 6 4 7 4 8 5 8 6 8 7 8 8 8 8 7 8 6"/><polygon points="3 7 3 6 3 5 3 4 3 3 3 2 2 2 2 3 1 3 1 4 2 4 2 5 2 6 2 7 2 8 3 8 3 7"/></g></svg>