<?xml version="1.0" encoding="UTF-8"?><svg xmlns="http://www.w3.org/2000/svg" viewBox="0 0 8 10"><g id="uuid-af8f7aaf-9b6c-447c-9cb0-2adfb9a82c86" shape-rendering="crispEdges"><polygon points="7 1 7 2 7 3 7 4 8 4 8 3 8 2 8 1 7 1"/><polygon points="3 2 3 1 3 0 2 0 2 1 2 2 2 3 3 3 3 2"/><polygon points="6 2 6 1 6 0 5 0 5 1 5 2 5 3 6 3 6 2"/><polygon points="1 3 1 2 1 1 0 1 0 2 0 3 0 4 1 4 1 3"/><polygon points="7 6 7 5 6 5 6 4 5 4 4 4 3 4 2 4 2 5 1 5 1 6 1 7 0 7 0 8 0 9 1 9 1 10 2 10 3 10 3 9 4 9 5 9 5 10 6 10 7 10 7 9 8 9 8 8 8 7 7 7 7 6"/></g></svg>