<?xml version="1.0" encoding="UTF-8"?><svg xmlns="http://www.w3.org/2000/svg" viewBox="0 0 10 10"><g id="uuid-1293d249-dc26-4c7d-9b73-dec79673f171" shape-rendering="crispEdges"><polyline points="7 9 8 9 8 8 9 8 9 7 10 7 10 6 10 5 10 4 10 3 9 3 9 2 8 2 8 3 7 3 7 4 6 4 6 5 5 5 4 5 4 6 3 6 3 7 2 7 2 8 2 9 3 9 3 10 4 10 5 10 6 10 7 10 7 9" fill="#00a0d9"/><path d="M3,7v-1h1v-1h2v-1h1v-1h1V1h-1V0H3v1h-1v1h-1v1H0v4h1v1h1v-1h1Z" fill="#ccc2c0"/><rect x="4" y="1" width="1" height="1"/><rect x="3" y="2" width="1" height="1"/><rect x="5" y="2" width="1" height="1"/><rect x="4" y="3" width="1" height="1"/><polygon points="7 7 6 7 6 6 5 6 5 7 4 7 4 8 4 9 5 9 6 9 7 9 7 8 7 7"/></g></svg>