<?xml version="1.0" encoding="UTF-8"?><svg xmlns="http://www.w3.org/2000/svg" viewBox="0 0 10 10"><g id="uuid-8d21a997-589e-4ffe-af8d-2a96a4472511" shape-rendering="crispEdges"><path d="M9,3v-1h-1v1h-1v1h-1v1h-2v1h-1v1h-1v2h1v1h4v-1h1v-1h1v-1h1V3h-1Z" fill="#d5ad5d"/><path d="M3,7v-1h1v-1h2v-1h1v-1h1V1h-1V0H3v1h-1v1h-1v1H0v4h1v1h1v-1h1Z" fill="#ccc2c0"/><rect x="4" y="1" width="1" height="1"/><rect x="3" y="2" width="1" height="1"/><rect x="5" y="2" width="1" height="1"/><rect x="4" y="3" width="1" height="1"/><polygon points="6 7 6 6 5 6 5 7 4 7 4 8 5 8 5 9 6 9 6 8 7 8 7 7 6 7"/></g></svg>