<?xml version="1.0" encoding="UTF-8"?><svg xmlns="http://www.w3.org/2000/svg" viewBox="0 0 10 10"><g id="uuid-6954721d-c31a-480e-bf26-ab2db2f9f7b5" shape-rendering="crispEdges"><polygon points="7 1 7 0 6 0 5 0 4 0 3 0 3 1 2 1 2 2 1 2 1 3 0 3 0 4 0 5 0 6 0 7 1 7 1 8 2 8 2 7 3 7 3 6 4 6 4 5 5 5 6 5 6 4 7 4 7 3 8 3 8 2 8 1 7 1" fill="#ccc2c0"/><path d="M9,3v-1h-1v1h-1v1h-1v1h-2v1h-1v1h-1v2h1v1h4v-1h1v-1h1v-1h1V3h-1Z" fill="#d5ad5d"/><polygon points="4 2 4 3 3 3 3 4 4 4 5 4 6 4 6 3 6 2 5 2 5 1 4 1 3 1 3 2 4 2"/><polygon points="6 7 6 6 5 6 5 7 4 7 4 8 5 8 5 9 6 9 6 8 7 8 7 7 6 7"/></g></svg>