<?xml version="1.0" encoding="UTF-8"?><svg xmlns="http://www.w3.org/2000/svg" viewBox="0 0 10 10"><g id="uuid-f60bb27c-be1a-4fcf-93fa-acac6510768f" shape-rendering="crispEdges"><path d="M9,3v-1h-1v-1h-1V0H3v1h-1v1h-1v1H0v4h1v1h1v1h1v1h4v-1h1v-1h1v-1h1V3h-1Z" fill="#00a0d9"/><polygon points="3 4 2 4 2 5 2 6 3 6 3 5 3 4"/><polygon points="7 6 8 6 8 5 8 4 7 4 7 5 7 6"/><polygon points="6 7 7 7 7 6 6 6 6 5 6 4 7 4 7 3 6 3 6 2 6 1 5 1 4 1 4 2 4 3 3 3 3 4 4 4 4 5 4 6 3 6 3 7 4 7 4 8 4 9 5 9 6 9 6 8 6 7"/></g></svg>