<?xml version="1.0" encoding="UTF-8"?><svg xmlns="http://www.w3.org/2000/svg" viewBox="0 0 10 10"><g id="uuid-1ca8eb44-22fe-4990-88e2-5c8269f41fe2" shape-rendering="crispEdges"><polygon points="9 3 9 2 8 2 8 1 7 1 7 0 6 0 5 0 4 0 3 0 3 1 2 1 2 2 1 2 1 3 0 3 0 4 0 5 0 6 0 7 1 7 1 8 2 8 2 9 3 9 3 10 4 10 5 10 6 10 7 10 7 9 8 9 8 8 9 8 9 7 10 7 10 6 10 5 10 4 10 3 9 3" fill="#ccc2c0"/><rect x="2" y="2" width="1" height="1"/><rect x="7" y="2" width="1" height="1"/><rect x="3" y="3" width="1" height="1"/><rect x="6" y="3" width="1" height="1"/><polygon points="4 4 4 5 4 6 4 7 4 8 5 8 6 8 6 7 6 6 6 5 6 4 5 4 4 4"/></g></svg>