<?xml version="1.0" encoding="UTF-8"?><svg xmlns="http://www.w3.org/2000/svg" viewBox="0 0 10 10"><g id="uuid-0efdcf1b-e2fb-4a83-b73e-62f0d1fce3fd" shape-rendering="crispEdges"><polyline points="4 6 3 6 3 7 2 7 2 8 2 9 3 9 3 10 4 10 5 10 6 10 7 10 7 9 8 9 8 8 9 8 9 7 10 7 10 6 10 5 10 4 10 3 9 3 9 2 8 2 8 3 7 3 7 4 6 4 6 5 5 5 4 5 4 6" fill="#00ba4f"/><polyline points="3 1 2 1 2 2 1 2 1 3 0 3 0 4 0 5 0 6 0 7 1 7 1 8 2 8 2 7 3 7 3 6 4 6 4 5 5 5 6 5 6 4 7 4 7 3 8 3 8 2 8 1 7 1 7 0 6 0 5 0 4 0 3 0 3 1" fill="#9059a0"/><rect x="4" y="3" width="1" height="1"/><polygon points="3 3 4 3 4 2 5 2 5 3 6 3 6 2 6 1 5 1 4 1 3 1 3 2 3 3"/><polygon points="4 8 5 8 5 9 6 9 6 8 7 8 7 7 7 6 6 6 5 6 4 6 4 7 4 8"/></g></svg>