<?xml version="1.0" encoding="UTF-8"?><svg xmlns="http://www.w3.org/2000/svg" viewBox="0 0 10 10"><g id="uuid-4992d4d1-4a09-4ab9-815d-41e3242f1b4b" shape-rendering="crispEdges"><polygon points="9 3 9 2 8 2 8 1 7 1 7 0 6 0 5 0 4 0 3 0 3 1 2 1 2 2 1 2 1 3 0 3 0 4 0 5 0 6 0 7 1 7 1 8 2 8 2 9 3 9 3 10 4 10 5 10 6 10 7 10 7 9 8 9 8 8 9 8 9 7 10 7 10 6 10 5 10 4 10 3 9 3" fill="#ccc2c0"/><polygon points="7 6 7 5 7 4 7 3 7 2 6 2 6 3 5 3 5 4 6 4 6 5 6 6 6 7 6 8 7 8 7 7 7 6"/><polygon points="4 7 4 6 4 5 4 4 4 3 4 2 3 2 3 3 2 3 2 4 3 4 3 5 3 6 3 7 3 8 4 8 4 7"/></g></svg>