<?xml version="1.0" encoding="UTF-8"?><svg xmlns="http://www.w3.org/2000/svg" viewBox="0 0 10 10"><g id="uuid-d1323ba6-2948-45c9-a832-c194f96cb18b" shape-rendering="crispEdges"><polygon points="9 3 9 2 8 2 8 1 7 1 7 0 6 0 5 0 4 0 3 0 3 1 2 1 2 2 1 2 1 3 0 3 0 4 0 5 0 6 0 7 1 7 1 8 2 8 2 9 3 9 3 10 4 10 5 10 6 10 7 10 7 9 8 9 8 8 9 8 9 7 10 7 10 6 10 5 10 4 10 3 9 3" fill="#ccc2c0"/><polygon points="6 2 5 2 5 3 6 3 7 3 7 2 6 2"/><rect x="4" y="3" width="1" height="1"/><polygon points="8 4 8 3 7 3 7 4 7 5 8 5 8 4"/><polygon points="7 6 7 5 6 5 5 5 5 6 6 6 7 6"/><polygon points="3 7 3 6 3 5 3 4 3 3 3 2 2 2 2 3 1 3 1 4 2 4 2 5 2 6 2 7 2 8 3 8 3 7"/><polygon points="7 7 6 7 5 7 5 6 4 6 4 7 4 8 5 8 6 8 7 8 8 8 8 7 7 7"/></g></svg>