<?xml version="1.0" encoding="UTF-8" standalone="no"?><!DOCTYPE svg PUBLIC "-//W3C//DTD SVG 1.1//EN" "http://www.w3.org/Graphics/SVG/1.1/DTD/svg11.dtd"><svg width="100%" height="100%" viewBox="0 0 1500 2100" version="1.1" xmlns="http://www.w3.org/2000/svg" xmlns:xlink="http://www.w3.org/1999/xlink" xml:space="preserve" xmlns:serif="http://www.serif.com/" style="fill-rule:evenodd;clip-rule:evenodd;stroke-linejoin:round;stroke-miterlimit:2;"><g id="Card"><g id="Pinlines"><path id="adjustableHorizontal" d="M1415.194,121.931c0,-30.355 -24.645,-55 -55,-55l-1223,0c-30.355,0 -55,24.645 -55,55l0,45c0,30.355 24.645,55 55,55l1223,0c30.355,0 55,-24.645 55,-55l0,-45Zm-9.667,0c0,-25.02 -20.313,-45.333 -45.333,-45.333l-1223,0c-25.02,0 -45.333,20.313 -45.333,45.333l0,45c0,25.02 20.313,45.333 45.333,45.333l1223,0c25.02,0 45.333,-20.313 45.333,-45.333l0,-45Zm-8.333,0l0,45c0,20.421 -16.579,37 -37,37l-1223,0c-20.421,0 -37,-16.579 -37,-37l0,-45c0,-20.421 16.579,-37 37,-37l1223,0c20.421,0 37,16.579 37,37Z"/></g></g></svg>