<?xml version="1.0" encoding="UTF-8" standalone="no"?><!DOCTYPE svg PUBLIC "-//W3C//DTD SVG 1.1//EN" "http://www.w3.org/Graphics/SVG/1.1/DTD/svg11.dtd"><svg width="100%" height="100%" viewBox="0 0 1500 2100" version="1.1" xmlns="http://www.w3.org/2000/svg" xmlns:xlink="http://www.w3.org/1999/xlink" xml:space="preserve" xmlns:serif="http://www.serif.com/" style="fill-rule:evenodd;clip-rule:evenodd;stroke-linejoin:round;stroke-miterlimit:2;"><g id="Card"><path id="type" d="M1386.683,1165.12l2.491,3.5c2.937,4.13 5.415,8.26 7.482,12.38c6.5,12.97 8.964,25.94 8.964,38.9c0,17.1 -4.279,34.19 -16.446,51.28l-2.491,3.5l-1273.366,0l-2.491,-3.5c-12.167,-17.09 -16.446,-34.18 -16.446,-51.28c0,-17.09 4.279,-34.18 16.446,-51.28l2.491,-3.5l1273.366,-0Zm-3.447,9.553l-0.004,-0.013c-0.194,-0.28 -0.391,-0.56 -0.59,-0.84c0.2,0.284 0.398,0.569 0.594,0.853Z"/></g></svg>